<svg id="Component_37_90" data-name="Component 37 – 90" xmlns="http://www.w3.org/2000/svg" width="16" height="16" viewBox="0 0 16 16">
  <path id="Path_1318" data-name="Path 1318" d="M1054,707v2h2v-2Zm-3,0v2h2v-2Zm-3,0v2h2v-2Zm6,0v2h2v-2Zm-3,0v2h2v-2Zm-3,0v2h2v-2Zm6,0v2h2v-2Zm-3,0v2h2v-2Zm-3,0v2h2v-2Z" transform="translate(-1044 -701)"/>
  <rect id="Rectangle_6070" data-name="Rectangle 6070" width="16" height="16" fill="none"/>
  <path id="Path_1319" data-name="Path 1319" d="M1059,705v9a2.376,2.376,0,0,1-2,2h-10a2.151,2.151,0,0,1-2-2v-9a2.135,2.135,0,0,1,2-2v11h10v-9h-10v-4h2v2h6v-2h2v2A2.376,2.376,0,0,1,1059,705Z" transform="translate(-1044 -701)"/>
</svg>
